<svg id="ic-chart-pie" xmlns="http://www.w3.org/2000/svg" width="16.658" height="16.207" viewBox="0 0 16.658 16.207">
  <path id="chart-pie-solid" d="M16.16,9.12H8.893l4.839,5a.48.48,0,0,0,.679.022,7.668,7.668,0,0,0,2.239-4.459.5.5,0,0,0-.492-.565Zm-.485-2.051A7.494,7.494,0,0,0,8.841,0a.5.5,0,0,0-.514.513V7.6h6.852a.5.5,0,0,0,.5-.532ZM6.857,9.12V1.609A.5.5,0,0,0,6.311,1.1,7.524,7.524,0,0,0,0,8.879,7.554,7.554,0,0,0,7.44,16.211a7.133,7.133,0,0,0,4.142-1.394.514.514,0,0,0,.048-.762Z" transform="translate(0.002 -0.004)"/>
</svg>
