<svg id="ic-excel" xmlns="http://www.w3.org/2000/svg" width="13.048" height="17.4" viewBox="0 0 13.048 17.4">
  <path id="file-excel-regular" d="M12.569,3.23,9.718.379A1.631,1.631,0,0,0,8.566-.1H1.631A1.636,1.636,0,0,0,0,1.534V15.669A1.631,1.631,0,0,0,1.631,17.3h9.786a1.631,1.631,0,0,0,1.631-1.631V4.385a1.639,1.639,0,0,0-.479-1.155ZM11.284,4.253H8.7V1.667ZM1.631,15.669V1.534H7.068V5.068a.814.814,0,0,0,.815.815h3.534v9.786Zm7.2-8.155H7.856a.4.4,0,0,0-.357.214,17.756,17.756,0,0,0-.972,1.961C6.055,8.7,6.293,9.1,5.555,7.729a.409.409,0,0,0-.36-.214H4.213a.407.407,0,0,0-.353.612l1.573,2.65L3.86,13.427a.406.406,0,0,0,.353.612H5.2a.4.4,0,0,0,.357-.214,17.666,17.666,0,0,0,.972-1.961c.506,1.026.2.54.972,1.961a.409.409,0,0,0,.36.214h.979a.407.407,0,0,0,.353-.612l-1.577-2.65c.024-.037,1.03-1.716,1.573-2.65A.406.406,0,0,0,8.834,7.515Z" transform="translate(0 0.1)"/>
</svg>
