<svg id="ic-file-arrow-down-solid" xmlns="http://www.w3.org/2000/svg" width="20.027" height="25.778" viewBox="0 0 20.027 25.778">
  <path id="file-arrow-down-solid" d="M19.333,6.444H12.889V0ZM12.889,8.056h6.444V23.361a2.417,2.417,0,0,1-2.417,2.417H2.417A2.417,2.417,0,0,1,0,23.361V2.417A2.417,2.417,0,0,1,2.417,0h8.861V6.444A1.609,1.609,0,0,0,12.889,8.056Zm-.05,6.8-1.964,1.969v-5.14a1.208,1.208,0,1,0-2.417,0v5.14L6.449,14.852a1.032,1.032,0,0,0-.811-.352,1.2,1.2,0,0,0-.854.352,1.208,1.208,0,0,0,0,1.709l4.028,4.028a1.208,1.208,0,0,0,1.709,0l4.028-4.028a1.209,1.209,0,0,0-1.71-1.709Z" fill="#fff"/>
</svg>
