<svg id="magnifying-glass-chart-solid" xmlns="http://www.w3.org/2000/svg" width="24" height="24" viewBox="0 0 24 24">
  <path id="magnifying-glass-chart-solid-2" data-name="magnifying-glass-chart-solid" d="M19.5,9.75A9.482,9.482,0,0,1,17.584,15.5l5.977,5.939a1.5,1.5,0,1,1-2.119,2.119L15.5,17.584A9.482,9.482,0,0,1,9.75,19.5,9.75,9.75,0,1,1,19.5,9.75ZM4.875,13.126a1.125,1.125,0,0,0,2.25,0v-3a1.125,1.125,0,1,0-2.25,0Zm3.75,0a1.125,1.125,0,0,0,2.25,0v-7.5a1.125,1.125,0,1,0-2.25,0Zm3.75,0a1.125,1.125,0,0,0,2.25,0v-4.5a1.125,1.125,0,0,0-2.25,0Z" fill="#fff"/>
</svg>
