<svg id="ic-edit-outline" xmlns="http://www.w3.org/2000/svg" width="24" height="24" viewBox="0 0 24 24">
  <g id="Group_160728" data-name="Group 160728">
    <path id="Path_4469" data-name="Path 4469" d="M22.594,1.407a4.8,4.8,0,0,0-6.791,0L2.383,14.827a.938.938,0,0,0-.24.412L.035,22.811a.937.937,0,0,0,1.159,1.153l7.573-2.151a.937.937,0,0,0,.408-1.564L4.4,15.461,15.524,4.336l4.137,4.137-8.516,8.493a.938.938,0,0,0,1.324,1.328L22.594,8.2a4.8,4.8,0,0,0,0-6.791ZM6.722,20.445,2.289,21.7l1.241-4.46ZM21.269,6.871l-.28.279L16.85,3.011l.278-.278a2.927,2.927,0,0,1,4.14,4.138Z" transform="translate(0)" fill="#006594"/>
  </g>
</svg>
