<svg id="chart-bar-solid" xmlns="http://www.w3.org/2000/svg" width="24" height="21" viewBox="0 0 24 21">
  <path id="chart-bar-solid-2" data-name="chart-bar-solid" d="M1.5,32A1.5,1.5,0,0,1,3,33.5V49.25a.751.751,0,0,0,.75.75H22.5a1.5,1.5,0,0,1,0,3H3.75A3.75,3.75,0,0,1,0,49.25V33.5A1.5,1.5,0,0,1,1.5,32ZM6,36.5A1.5,1.5,0,0,1,7.5,35h9a1.5,1.5,0,0,1,0,3h-9A1.5,1.5,0,0,1,6,36.5Zm7.5,3a1.5,1.5,0,0,1,0,3h-6a1.5,1.5,0,0,1,0-3Zm6,4.5a1.5,1.5,0,0,1,0,3H7.5a1.5,1.5,0,0,1,0-3Z" transform="translate(0 -32)" fill="#fff"/>
</svg>
