<svg id="ic-file-arrow-up-solid" xmlns="http://www.w3.org/2000/svg" width="20.882" height="25.843" viewBox="0 0 20.882 25.843">
  <path id="file-arrow-up-solid" d="M13.921,0V6.461h6.961Zm-1.74,6.461V0H2.61A2.522,2.522,0,0,0,0,2.423v21a2.522,2.522,0,0,0,2.61,2.423H18.272a2.522,2.522,0,0,0,2.61-2.423V8.076H13.97A1.693,1.693,0,0,1,12.181,6.461Zm3.486,10.907a1.049,1.049,0,0,1-.876.4,1.349,1.349,0,0,1-.923-.355L11.746,15.44v5.153a1.309,1.309,0,0,1-2.61,0V15.44L7.013,17.41a1.377,1.377,0,0,1-1.846,0,1.15,1.15,0,0,1,0-1.713l4.35-4.038a1.377,1.377,0,0,1,1.846,0l4.35,4.038A1.076,1.076,0,0,1,15.667,17.368Z" fill="#fff"/>
</svg>
