<svg id="ic-image" xmlns="http://www.w3.org/2000/svg" width="28.691" height="21.519" viewBox="0 0 28.691 21.519">
  <path id="image-regular" d="M26,64H2.69A2.69,2.69,0,0,0,0,66.69V82.829a2.69,2.69,0,0,0,2.69,2.69H26a2.69,2.69,0,0,0,2.69-2.69V66.69A2.69,2.69,0,0,0,26,64Zm-.336,18.829H3.026a.336.336,0,0,1-.336-.336V67.026a.336.336,0,0,1,.336-.336H25.665a.336.336,0,0,1,.336.336V82.493A.336.336,0,0,1,25.665,82.829ZM7.173,68.931a2.242,2.242,0,1,0,2.242,2.242A2.242,2.242,0,0,0,7.173,68.931ZM5.38,80.139H23.312V75.656l-4.9-4.9a.673.673,0,0,0-.951,0l-6.7,6.7L8.545,75.235a.673.673,0,0,0-.951,0L5.38,77.449Z" transform="translate(0 -64)" fill="#fff"/>
</svg>
