<svg xmlns="http://www.w3.org/2000/svg" width="24" height="19.2" viewBox="0 0 24 19.2">
  <path id="object-ungroup-solid" d="M1.2,4.478A2.4,2.4,0,1,1,4.478,1.2h7.845A2.4,2.4,0,1,1,15.6,4.478V8.723A2.4,2.4,0,1,1,12.323,12H4.478A2.4,2.4,0,1,1,1.2,8.723Zm2.4,0V8.723a2.4,2.4,0,0,1,.878.877h7.845a2.4,2.4,0,0,1,.877-.877V4.478a2.4,2.4,0,0,1-.877-.878H4.478a2.4,2.4,0,0,1-.878.878ZM11.677,18A2.4,2.4,0,1,1,8.4,14.723V13.2h2.4v1.523a2.4,2.4,0,0,1,.877.877h7.845a2.4,2.4,0,0,1,.878-.877V10.477a2.26,2.26,0,0,1-.878-.911H17.794A3.714,3.714,0,0,0,16.8,8.115V7.166h2.722a2.468,2.468,0,0,1,2.078-1.2,2.421,2.421,0,0,1,1.2,4.511v4.245A2.4,2.4,0,1,1,19.522,18Z" fill="#fff"/>
</svg>
