<svg id="ic-password" xmlns="http://www.w3.org/2000/svg" width="35.671" height="24.402" viewBox="0 0 35.671 24.402">
  <path id="eye-slash-solid" d="M17.837,19.061c-4.228,0-7.65-2.8-7.965-6.344L4.025,8.853A15.925,15.925,0,0,0,1.979,11.5a1.344,1.344,0,0,0,0,1.391,18.366,18.366,0,0,0,15.858,8.455,20.079,20.079,0,0,0,4.341-.5l-2.892-1.914A9.352,9.352,0,0,1,17.837,19.061ZM35.327,21.83l-6.162-4.072a16.492,16.492,0,0,0,4.528-4.865,1.345,1.345,0,0,0,0-1.391A18.366,18.366,0,0,0,17.837,3.047a19.514,19.514,0,0,0-8.211,1.8L2.535.157A1,1,0,0,0,1.283.291L.189,1.5a.691.691,0,0,0,.157,1.07L33.138,24.238A1,1,0,0,0,34.39,24.1l1.095-1.2A.691.691,0,0,0,35.327,21.83Zm-10.24-6.768L22.9,13.614a3.933,3.933,0,0,0,.29-1.416A4.319,4.319,0,0,0,21.1,8.543a6.01,6.01,0,0,0-4.676-.74,2.062,2.062,0,0,1,.519,1.344,1.927,1.927,0,0,1-.086.477l-4.1-2.711a9,9,0,0,1,10.757.431A6.4,6.4,0,0,1,25.863,12.2a5.915,5.915,0,0,1-.775,2.865Z" transform="translate(-0.001 0.003)" fill="#006837"/>
</svg>
