<svg xmlns="http://www.w3.org/2000/svg" width="125.092" height="75.054" viewBox="0 0 125.092 75.054">
  <g id="cloud" transform="translate(0)">
    <path id="Path_4659" data-name="Path 4659" d="M107.434,91.055h-69.7V87.481h69.7a16.073,16.073,0,0,0,.756-32.128,1.787,1.787,0,0,1-1.646-2.234A26.775,26.775,0,0,0,56.46,34.849a1.787,1.787,0,0,1-3.006.357A17.854,17.854,0,0,0,22.9,52.9a1.787,1.787,0,0,1-1.621,2.439,16.084,16.084,0,0,0,.381,32.144h10.5v3.574h-10.5A19.649,19.649,0,0,1,18.83,51.962a21.2,21.2,0,0,1-.749-5.583A21.445,21.445,0,0,1,54.462,31.01a30.357,30.357,0,0,1,56.546,15.369,29.685,29.685,0,0,1-.549,5.615,19.647,19.647,0,0,1-3.026,39.061Z" transform="translate(-2.003 -16.002)" fill="rgba(112,112,112,0.7)"/>
    <path id="Path_4660" data-name="Path 4660" d="M61.29,37.29H58.51A12.524,12.524,0,0,0,46,24.78V22A15.307,15.307,0,0,1,61.29,37.29Z" transform="translate(35.883 -13.662)" fill="rgba(112,112,112,0.7)"/>
  </g>
</svg>
