<svg id="ic-bell" xmlns="http://www.w3.org/2000/svg" width="19.301" height="22.059" viewBox="0 0 19.301 22.059">
  <path id="bell-solid" d="M9.65,22.059A2.757,2.757,0,0,0,12.406,19.3H6.894A2.757,2.757,0,0,0,9.65,22.059Zm9.28-6.45c-.832-.894-2.39-2.24-2.39-6.647a6.8,6.8,0,0,0-5.512-6.685v-.9a1.378,1.378,0,1,0-2.756,0v.9A6.8,6.8,0,0,0,2.76,8.961c0,4.407-1.557,5.753-2.39,6.647A1.346,1.346,0,0,0,0,16.544a1.38,1.38,0,0,0,1.383,1.379H17.918A1.38,1.38,0,0,0,19.3,16.544,1.345,1.345,0,0,0,18.93,15.609Z" transform="translate(0.001)" fill="#fff"/>
</svg>
