<svg id="ic-clock" xmlns="http://www.w3.org/2000/svg" width="24" height="24" viewBox="0 0 24 24">
  <path id="clock-regular_1_" data-name="clock-regular (1)" d="M20,8A12,12,0,1,0,32,20,12,12,0,0,0,20,8Zm0,21.677A9.677,9.677,0,1,1,29.677,20,9.675,9.675,0,0,1,20,29.677Zm2.99-5.052L18.882,21.64a.584.584,0,0,1-.237-.469V13.226a.582.582,0,0,1,.581-.581h1.548a.582.582,0,0,1,.581.581v6.856l3.232,2.352a.58.58,0,0,1,.126.813L23.8,24.5A.585.585,0,0,1,22.99,24.626Z" transform="translate(-8 -8)" fill="#707070"/>
</svg>
