<svg id="ic-cancel" xmlns="http://www.w3.org/2000/svg" width="18" height="17.999" viewBox="0 0 18 17.999">
  <path id="Path_210" data-name="Path 210" d="M17.538,14.928,3.432.821a1.574,1.574,0,0,0-2.227,0l-.743.742a1.574,1.574,0,0,0,0,2.227L14.568,17.9a1.574,1.574,0,0,0,2.227,0l.742-.742a1.573,1.573,0,0,0,0-2.227Zm0,0" transform="translate(0 -0.36)" fill="#f44336"/>
  <path id="Path_211" data-name="Path 211" d="M14.568.823.461,14.929a1.574,1.574,0,0,0,0,2.227L1.2,17.9a1.574,1.574,0,0,0,2.227,0L17.538,3.793a1.574,1.574,0,0,0,0-2.227L16.8.824a1.575,1.575,0,0,0-2.228,0Zm0,0" transform="translate(0 -0.361)" fill="#f44336"/>
</svg>
