<svg id="ic-chart-bar" xmlns="http://www.w3.org/2000/svg" width="17" height="13" viewBox="0 0 17 13">
  <path id="chart-bar-regular" d="M13.175,73.75h.744a.462.462,0,0,0,.425-.433v-7.8a.462.462,0,0,0-.425-.433h-.744a.462.462,0,0,0-.425.433v7.8A.462.462,0,0,0,13.175,73.75Zm-6.375,0h.744a.462.462,0,0,0,.425-.433V66.6a.462.462,0,0,0-.425-.433H6.8a.462.462,0,0,0-.425.433v6.717A.462.462,0,0,0,6.8,73.75Zm3.188,0h.744a.462.462,0,0,0,.425-.433v-4.55a.462.462,0,0,0-.425-.433H9.988a.462.462,0,0,0-.425.433v4.55A.462.462,0,0,0,9.988,73.75Zm6.481,1.625H1.594V64.542A.536.536,0,0,0,1.063,64H.531A.536.536,0,0,0,0,64.542V75.917A1.073,1.073,0,0,0,1.063,77H16.469A.536.536,0,0,0,17,76.458v-.542A.536.536,0,0,0,16.469,75.375ZM3.612,73.75h.744a.462.462,0,0,0,.425-.433V70.933a.462.462,0,0,0-.425-.433H3.612a.462.462,0,0,0-.425.433v2.383a.462.462,0,0,0,.425.433Z" transform="translate(0 -64)"/>
</svg>
