<svg id="ic-excel" xmlns="http://www.w3.org/2000/svg" width="43.491" height="40.775" viewBox="0 0 43.491 40.775">
  <g id="excel">
    <path id="Path_4320" data-name="Path 4320" d="M276.386,109.911H257.359A1.36,1.36,0,0,1,256,108.552V81.37a1.36,1.36,0,0,1,1.359-1.359h19.027a1.36,1.36,0,0,1,1.359,1.359v27.182A1.36,1.36,0,0,1,276.386,109.911Z" transform="translate(-234.255 -74.573)" fill="#eceff1"/>
    <g id="Group_160499" data-name="Group 160499" transform="translate(21.745 10.875)">
      <path id="Path_4321" data-name="Path 4321" d="M262.8,146.729h-5.436a1.359,1.359,0,0,1,0-2.718H262.8a1.359,1.359,0,0,1,0,2.718Z" transform="translate(-256 -144.011)" fill="#388e3c"/>
      <path id="Path_4322" data-name="Path 4322" d="M262.8,210.729h-5.436a1.359,1.359,0,1,1,0-2.718H262.8a1.359,1.359,0,1,1,0,2.718Z" transform="translate(-256 -202.575)" fill="#388e3c"/>
      <path id="Path_4323" data-name="Path 4323" d="M262.8,274.729h-5.436a1.359,1.359,0,1,1,0-2.718H262.8a1.359,1.359,0,1,1,0,2.718Z" transform="translate(-256 -261.138)" fill="#388e3c"/>
      <path id="Path_4324" data-name="Path 4324" d="M262.8,338.729h-5.436a1.359,1.359,0,0,1,0-2.718H262.8a1.359,1.359,0,0,1,0,2.718Z" transform="translate(-256 -319.702)" fill="#388e3c"/>
      <path id="Path_4325" data-name="Path 4325" d="M388.077,146.729h-2.718a1.359,1.359,0,0,1,0-2.718h2.718a1.359,1.359,0,1,1,0,2.718Z" transform="translate(-373.127 -144.011)" fill="#388e3c"/>
      <path id="Path_4326" data-name="Path 4326" d="M388.077,210.729h-2.718a1.359,1.359,0,0,1,0-2.718h2.718a1.359,1.359,0,1,1,0,2.718Z" transform="translate(-373.127 -202.575)" fill="#388e3c"/>
      <path id="Path_4327" data-name="Path 4327" d="M388.077,274.729h-2.718a1.359,1.359,0,0,1,0-2.718h2.718a1.359,1.359,0,1,1,0,2.718Z" transform="translate(-373.127 -261.138)" fill="#388e3c"/>
      <path id="Path_4328" data-name="Path 4328" d="M388.077,338.729h-2.718a1.359,1.359,0,0,1,0-2.718h2.718a1.359,1.359,0,1,1,0,2.718Z" transform="translate(-373.127 -319.702)" fill="#388e3c"/>
    </g>
    <path id="Path_4329" data-name="Path 4329" d="M23.972,16.3a1.335,1.335,0,0,0-1.117-.288L1.109,20.093A1.355,1.355,0,0,0,0,21.428v29.9a1.357,1.357,0,0,0,1.109,1.335L22.854,56.74a1.279,1.279,0,0,0,.25.024A1.359,1.359,0,0,0,24.464,55.4V17.35A1.356,1.356,0,0,0,23.972,16.3Z" transform="translate(0 -15.989)" fill="#2e7d32"/>
    <path id="Path_4330" data-name="Path 4330" d="M91.88,172.722l-4.3-4.912,4.346-5.589a1.36,1.36,0,0,0-2.145-1.672l-4.026,5.175-3.392-3.876a1.358,1.358,0,1,0-2.044,1.789l3.737,4.273-3.789,4.871a1.36,1.36,0,0,0,2.147,1.669l3.466-4.458,3.952,4.515a1.357,1.357,0,1,0,2.044-1.786Z" transform="translate(-73.189 -147.792)" fill="#fafafa"/>
  </g>
</svg>
