<svg version="1.2" xmlns="http://www.w3.org/2000/svg" viewBox="0 0 24 24" width="24" height="24">
	<title>ic-edit-outline-svg</title>
	<style>
		.s0 { fill: #ffffff } 
	</style>
	<g id="Group_160728">
		<path id="Path_4469" fill-rule="evenodd" class="s0" d="m23.6 3q0.4 0.8 0.4 1.8 0 1-0.4 1.8-0.3 0.9-1 1.6l-10.1 10.1q-0.3 0.3-0.7 0.2-0.4 0-0.6-0.2-0.3-0.3-0.3-0.7 0-0.4 0.2-0.6l8.6-8.5-4.2-4.2-11.1 11.2 4.8 4.7q0.2 0.2 0.2 0.5 0.1 0.2 0 0.4 0 0.3-0.2 0.5-0.2 0.1-0.4 0.2l-7.6 2.2q-0.3 0-0.5 0-0.2-0.1-0.4-0.3-0.2-0.2-0.3-0.4 0-0.2 0-0.5l2.1-7.6q0.1 0 0.1-0.1 0 0 0-0.1 0.1 0 0.1-0.1 0 0 0.1-0.1l13.4-13.4q0.7-0.7 1.6-1 0.8-0.4 1.8-0.4 1 0 1.8 0.4 0.9 0.3 1.6 1 0.7 0.7 1 1.6zm-20.1 14.2l-1.2 4.5 4.4-1.3zm18.6-12.4c0-0.8-0.3-1.5-0.9-2-0.5-0.6-1.2-0.9-2-0.9-0.8 0-1.5 0.3-2.1 0.8l-0.3 0.3 4.2 4.2 0.3-0.3c0.5-0.6 0.8-1.3 0.8-2.1z"/>
	</g>
</svg>