<svg id="ic-file-powerpoint-solid" xmlns="http://www.w3.org/2000/svg" width="21.75" height="29" viewBox="0 0 21.75 29">
  <path id="file-powerpoint-solid" d="M14.5,0V7.25h7.25ZM12.688,7.25V0H2.719A2.719,2.719,0,0,0,0,2.719V26.281A2.719,2.719,0,0,0,2.719,29H19.031a2.719,2.719,0,0,0,2.719-2.719V9.063h-7.2A1.822,1.822,0,0,1,12.688,7.25Zm3.149,10.2A4.311,4.311,0,0,1,11.555,22.2H9.063v2.266a.909.909,0,0,1-.906.906H7.25a.906.906,0,0,1-.906-.906V14.5a.906.906,0,0,1,.906-.906H11.3A4.477,4.477,0,0,1,15.837,17.451ZM9.063,19.484h2.492a1.586,1.586,0,0,0,0-3.172H9.063Z" fill="#E24C4B"/>
</svg>
