<svg id="ic-file-word-solid" xmlns="http://www.w3.org/2000/svg" width="48" height="64" viewBox="0 0 48 64">
  <path id="file-word-solid" d="M28,16V0H6A6,6,0,0,0,0,6V58a6,6,0,0,0,6,6H42a6,6,0,0,0,6-6V20H32.112A4.022,4.022,0,0,1,28,16Zm7.188,14h2.921a1.5,1.5,0,0,1,1.461,1.837l-5.307,23A1.5,1.5,0,0,1,32.813,56H29.155a1.5,1.5,0,0,1-1.449-1.11L24,41.138,20.3,54.775A1.574,1.574,0,0,1,18.85,56H15.188a1.5,1.5,0,0,1-1.461-1.163l-5.307-23A1.507,1.507,0,0,1,9.885,30h2.921a1.5,1.5,0,0,1,1.461,1.163L17.225,44,20.7,31.112A1.5,1.5,0,0,1,22.15,30h3.7A1.5,1.5,0,0,1,27.3,31.11L30.775,44l2.962-12.837A1.408,1.408,0,0,1,35.188,30ZM32,0V16H48Z" fill="#006594"/>
</svg>
