<svg id="ic-file-pdf-solid" xmlns="http://www.w3.org/2000/svg" width="12" height="16" viewBox="0 0 12 16">
  <path id="file-pdf-solid" d="M2.75,9.5H2.5V8h.25a.75.75,0,0,1,0,1.5ZM6,8h.25a.5.5,0,0,1,.5.5v2a.5.5,0,0,1-.5.5H6ZM7,0V4A1,1,0,0,0,8,5h4v9a2,2,0,0,1-2,2H2a2,2,0,0,1-2-2V2A2,2,0,0,1,2,0ZM2,7a.5.5,0,0,0-.5.5v4a.5.5,0,0,0,1,0v-1h.25a1.75,1.75,0,0,0,0-3.5Zm3,4.5a.5.5,0,0,0,.5.5h.75a1.5,1.5,0,0,0,1.5-1.5v-2A1.5,1.5,0,0,0,6.25,7H5.5a.5.5,0,0,0-.5.5ZM9,7a.5.5,0,0,0-.5.5v4a.5.5,0,0,0,1,0V10h1a.5.5,0,0,0,0-1h-1V8h1a.5.5,0,0,0,0-1ZM8,0l4,4H8Z"/>
</svg>
