<svg id="ic-list-detail" xmlns="http://www.w3.org/2000/svg" width="30.504" height="26.55" viewBox="0 0 30.504 26.55">
  <path id="list-alt-regular" d="M27.644,32H2.86A2.852,2.852,0,0,0,0,34.845V55.706A2.852,2.852,0,0,0,2.86,58.55H27.644a2.852,2.852,0,0,0,2.86-2.845V34.845A2.852,2.852,0,0,0,27.644,32Zm-.357,23.706H3.217a.357.357,0,0,1-.357-.356V35.2a.357.357,0,0,1,.357-.356H27.287a.357.357,0,0,1,.357.356V55.35A.357.357,0,0,1,27.287,55.706Zm-2.5-5.452v1.422a.713.713,0,0,1-.715.711H12.154a.713.713,0,0,1-.715-.711V50.253a.713.713,0,0,1,.715-.711H24.069A.713.713,0,0,1,24.784,50.253Zm0-5.689v1.422a.713.713,0,0,1-.715.711H12.154a.713.713,0,0,1-.715-.711V44.564a.713.713,0,0,1,.715-.711H24.069A.713.713,0,0,1,24.784,44.564Zm0-5.689V40.3a.713.713,0,0,1-.715.711H12.154a.713.713,0,0,1-.715-.711V38.875a.713.713,0,0,1,.715-.711H24.069A.713.713,0,0,1,24.784,38.875Zm-15.014.711a2.145,2.145,0,1,1-2.145-2.134A2.139,2.139,0,0,1,9.771,39.586Zm0,5.689a2.145,2.145,0,1,1-2.145-2.134A2.139,2.139,0,0,1,9.771,45.275Zm0,5.689a2.145,2.145,0,1,1-2.145-2.134A2.139,2.139,0,0,1,9.771,50.965Z" transform="translate(0 -32)"/>
</svg>
