<svg id="ic-left-arrow" xmlns="http://www.w3.org/2000/svg" width="38.636" height="38.012" viewBox="0 0 38.636 38.012">
  <path id="arrow-left-solid" d="M22.159,73.116l-1.914,1.932a2.047,2.047,0,0,1-2.923,0L.558,58.136a2.094,2.094,0,0,1,0-2.951L17.321,38.264a2.047,2.047,0,0,1,2.923,0L22.159,40.2a2.105,2.105,0,0,1-.034,2.986L11.734,53.174H36.516a2.074,2.074,0,0,1,2.07,2.089v2.785a2.074,2.074,0,0,1-2.07,2.089H11.734L22.124,70.13A2.09,2.09,0,0,1,22.159,73.116Z" transform="translate(0.05 -37.65)" fill="#00506a"/>
</svg>
