<svg xmlns="http://www.w3.org/2000/svg" width="30.343" height="26.55" viewBox="0 0 30.343 26.55">
  <g id="ic-menu" transform="translate(0 0)">
    <path id="bars-solid" d="M1.084,64.877H29.26a1.084,1.084,0,0,0,1.084-1.084V61.084A1.084,1.084,0,0,0,29.26,60H1.084A1.084,1.084,0,0,0,0,61.084v2.709A1.084,1.084,0,0,0,1.084,64.877Zm0,10.837H29.26a1.084,1.084,0,0,0,1.084-1.084V71.921a1.084,1.084,0,0,0-1.084-1.084H1.084A1.084,1.084,0,0,0,0,71.921V74.63A1.084,1.084,0,0,0,1.084,75.714Zm0,10.837H29.26a1.084,1.084,0,0,0,1.084-1.084V82.758a1.084,1.084,0,0,0-1.084-1.084H1.084A1.084,1.084,0,0,0,0,82.758v2.709A1.084,1.084,0,0,0,1.084,86.55Z" transform="translate(0 -60)"/>
  </g>
</svg>
