<svg xmlns="http://www.w3.org/2000/svg" width="62.825" height="71.799" viewBox="0 0 62.825 71.799">
  <g id="Group_164456" data-name="Group 164456" transform="translate(-1255.494 -392.418)">
    <path id="Path_4690" data-name="Path 4690" d="M100.487,0A4.5,4.5,0,0,0,96,4.487V67.312a4.5,4.5,0,0,0,4.487,4.487h44.874a4.5,4.5,0,0,0,4.487-4.487V17.95L131.9,0Z" transform="translate(1168.468 392.418)" fill="#e2e5e7"/>
    <path id="Path_4691" data-name="Path 4691" d="M356.487,17.95H369.95L352,0V13.462A4.5,4.5,0,0,0,356.487,17.95Z" transform="translate(948.365 392.418)" fill="#b0b7bd"/>
    <path id="Path_4692" data-name="Path 4692" d="M397.462,141.462,384,128h13.462Z" transform="translate(920.857 282.37)" fill="#cad1d8"/>
    <path id="Path_4693" data-name="Path 4693" d="M85.849,264.681a2.25,2.25,0,0,1-2.244,2.244H34.244A2.25,2.25,0,0,1,32,264.681V242.244A2.25,2.25,0,0,1,34.244,240H83.606a2.25,2.25,0,0,1,2.244,2.244Z" transform="translate(1223.494 186.072)" fill="#f15642"/>
    <path id="Path_4694" data-name="Path 4694" d="M101.744,295.559a1.235,1.235,0,0,1,1.218-1.239h4.144a4.486,4.486,0,0,1,0,8.97h-3v2.369a1.126,1.126,0,0,1-1.149,1.236,1.209,1.209,0,0,1-1.218-1.236Zm2.367,1.021v4.47h3a2.236,2.236,0,0,0,0-4.47Z" transform="translate(1163.527 139.372)" fill="#fff"/>
    <path id="Path_4695" data-name="Path 4695" d="M189.063,307.886a1.123,1.123,0,0,1-1.239-1.111V296.585a1.22,1.22,0,0,1,1.239-1.113h4.108c8.2,0,8.019,12.414.162,12.414Zm1.131-10.225V305.7h2.977c4.844,0,5.06-8.037,0-8.037Z" transform="translate(1089.518 138.382)" fill="#fff"/>
    <path id="Path_4696" data-name="Path 4696" d="M289.483,297.792v2.852h4.575a1.387,1.387,0,0,1,1.292,1.272,1.247,1.247,0,0,1-1.292,1.077h-4.575v3.767a1.063,1.063,0,0,1-1.075,1.111,1.14,1.14,0,0,1-1.272-1.111V296.569a1.134,1.134,0,0,1,1.272-1.113h6.3a1.119,1.119,0,0,1,1.256,1.113,1.24,1.24,0,0,1-1.256,1.221h-5.223Z" transform="translate(1004.135 138.396)" fill="#fff"/>
    <path id="Path_4697" data-name="Path 4697" d="M138.631,418.244H96v2.244h42.631a2.25,2.25,0,0,0,2.244-2.244V416A2.25,2.25,0,0,1,138.631,418.244Z" transform="translate(1168.468 34.753)" fill="#cad1d8"/>
  </g>
</svg>
