<svg id="ic-settings" xmlns="http://www.w3.org/2000/svg" width="22.703" height="23.843" viewBox="0 0 22.703 23.843">
  <path id="gear-solid" d="M37.339,7.758a1.05,1.05,0,0,1-.3,1.146l-2.037,1.835a8.787,8.787,0,0,1,0,2.366l2.037,1.835a1.05,1.05,0,0,1,.3,1.146,11.766,11.766,0,0,1-.739,1.6l-.221.377a12.269,12.269,0,0,1-1.04,1.458,1.083,1.083,0,0,1-1.153.317L31.567,19a10.319,10.319,0,0,1-2.07,1.187l-.588,2.659a1.122,1.122,0,0,1-.856.829,12.416,12.416,0,0,1-2.042.163,12.152,12.152,0,0,1-1.957-.163,1.122,1.122,0,0,1-.856-.829l-.588-2.659A9.27,9.27,0,0,1,20.54,19l-2.618.829a1.081,1.081,0,0,1-1.153-.317,12.221,12.221,0,0,1-1.04-1.458l-.22-.377a11.56,11.56,0,0,1-.742-1.6,1.051,1.051,0,0,1,.3-1.146L17.1,13.1a8.943,8.943,0,0,1,0-2.366L15.065,8.9a1.049,1.049,0,0,1-.3-1.146,11.615,11.615,0,0,1,.742-1.6l.22-.377a12.065,12.065,0,0,1,1.041-1.455,1.075,1.075,0,0,1,1.153-.317l2.618.827a9.07,9.07,0,0,1,2.07-1.186L23.2.993a1.062,1.062,0,0,1,.856-.83,12.31,12.31,0,0,1,4,0,1.062,1.062,0,0,1,.856.83L29.5,3.652a10.071,10.071,0,0,1,2.07,1.186l2.62-.827a1.078,1.078,0,0,1,1.153.317,12.057,12.057,0,0,1,1.04,1.455l.221.377a11.766,11.766,0,0,1,.739,1.6ZM26.054,15.647a3.746,3.746,0,1,0-3.764-3.767A3.752,3.752,0,0,0,26.054,15.647Z" transform="translate(-14.702)" fill="#fff"/>
</svg>
