<svg xmlns="http://www.w3.org/2000/svg" width="24" height="23.999" viewBox="0 0 24 23.999">
  <path id="layer-group-solid_1_" data-name="layer-group-solid (1)" d="M10.9.246a2.626,2.626,0,0,1,2.2,0L23.348,4.982a1.107,1.107,0,0,1,.652.98,1.147,1.147,0,0,1-.652,1.064L13.1,11.76a2.622,2.622,0,0,1-2.2,0L.653,7.026A1.149,1.149,0,0,1,0,5.962a1.109,1.109,0,0,1,.653-.98Zm12.45,10.736a1.107,1.107,0,0,1,.652.98,1.147,1.147,0,0,1-.652,1.064L13.1,17.76a2.622,2.622,0,0,1-2.2,0L.653,13.026A1.149,1.149,0,0,1,0,11.962a1.109,1.109,0,0,1,.653-.98L3.147,9.829,10.27,13.12a4.1,4.1,0,0,0,3.459,0l7.125-3.291ZM13.73,19.12l7.125-3.291,2.494,1.153a1.107,1.107,0,0,1,.652.98,1.147,1.147,0,0,1-.652,1.064L13.1,23.76a2.622,2.622,0,0,1-2.2,0L.653,19.026A1.149,1.149,0,0,1,0,17.962a1.109,1.109,0,0,1,.653-.98l2.494-1.153L10.27,19.12a4.1,4.1,0,0,0,3.459,0Z" transform="translate(0 -0.004)" fill="#fff"/>
</svg>
