<svg id="users-solid" xmlns="http://www.w3.org/2000/svg" width="24.803" height="19.843" viewBox="0 0 24.803 19.843">
  <path id="users-solid-2" data-name="users-solid" d="M12.4,12.4a4.031,4.031,0,1,0-4-4.031A4,4,0,0,0,12.4,12.4Zm1.938,1.24H10.468a5.345,5.345,0,0,0-5.507,5.166,1.068,1.068,0,0,0,1.1,1.035H18.742a1.068,1.068,0,0,0,1.1-1.035A5.345,5.345,0,0,0,14.336,13.642ZM19.843,6.2a3.1,3.1,0,1,0-3.1-3.1A3.1,3.1,0,0,0,19.843,6.2ZM7.127,8.371a5.163,5.163,0,0,1,.062-.617,2.807,2.807,0,0,0-1.38-.314h-2.4A3.52,3.52,0,0,0,0,11.057a.705.705,0,0,0,.683.725H8.415A5.22,5.22,0,0,1,7.127,8.371ZM4.961,6.2a3.1,3.1,0,1,0-3.1-3.1A3.1,3.1,0,0,0,4.961,6.2Zm16.428,1.24h-2.4a3.232,3.232,0,0,0-1.39.319,5.31,5.31,0,0,1,.062.611,5.225,5.225,0,0,1-1.285,3.41h7.739a.706.706,0,0,0,.684-.725A3.519,3.519,0,0,0,21.389,7.441Z" fill="#fff"/>
</svg>
