<svg xmlns="http://www.w3.org/2000/svg" width="106" height="49" viewBox="0 0 106 49">
  <g id="Grupo_164357" data-name="Grupo 164357" transform="translate(-1496.354 -228.93)">
    <g id="Grupo_164356" data-name="Grupo 164356" transform="translate(1496 229)">
      <g id="Rect치ngulo_147727" data-name="Rect치ngulo 147727" transform="translate(0.353 -0.07)" fill="#e1e1e1" stroke="#707070" stroke-width="2">
        <path d="M4,0H54a0,0,0,0,1,0,0V49a0,0,0,0,1,0,0H4a4,4,0,0,1-4-4V4A4,4,0,0,1,4,0Z" stroke="none"/>
        <path d="M4,1H52a1,1,0,0,1,1,1V47a1,1,0,0,1-1,1H4a3,3,0,0,1-3-3V4A3,3,0,0,1,4,1Z" fill="none"/>
      </g>
      <g id="ic-list-detail" transform="translate(11.794 11.232)">
        <path id="list-alt-regular" d="M27.644,32H2.86A2.852,2.852,0,0,0,0,34.845V55.706A2.852,2.852,0,0,0,2.86,58.55H27.644a2.852,2.852,0,0,0,2.86-2.845V34.845A2.852,2.852,0,0,0,27.644,32Zm-.357,23.706H3.217a.357.357,0,0,1-.357-.356V35.2a.357.357,0,0,1,.357-.356H27.287a.357.357,0,0,1,.357.356V55.35A.357.357,0,0,1,27.287,55.706Zm-2.5-5.452v1.422a.713.713,0,0,1-.715.711H12.154a.713.713,0,0,1-.715-.711V50.253a.713.713,0,0,1,.715-.711H24.069A.713.713,0,0,1,24.784,50.253Zm0-5.689v1.422a.713.713,0,0,1-.715.711H12.154a.713.713,0,0,1-.715-.711V44.564a.713.713,0,0,1,.715-.711H24.069A.713.713,0,0,1,24.784,44.564Zm0-5.689V40.3a.713.713,0,0,1-.715.711H12.154a.713.713,0,0,1-.715-.711V38.875a.713.713,0,0,1,.715-.711H24.069A.713.713,0,0,1,24.784,38.875Zm-15.014.711a2.145,2.145,0,1,1-2.145-2.134A2.139,2.139,0,0,1,9.771,39.586Zm0,5.689a2.145,2.145,0,1,1-2.145-2.134A2.139,2.139,0,0,1,9.771,45.275Zm0,5.689a2.145,2.145,0,1,1-2.145-2.134A2.139,2.139,0,0,1,9.771,50.965Z" transform="translate(0 -32)"/>
      </g>
    </g>
    <g id="Grupo_164355" data-name="Grupo 164355" transform="translate(1548.792 229)">
      <g id="Rect치ngulo_147728" data-name="Rect치ngulo 147728" transform="translate(-0.439 -0.07)" fill="#fff" stroke="#707070" stroke-width="2">
        <path d="M0,0H50a4,4,0,0,1,4,4V45a4,4,0,0,1-4,4H0a0,0,0,0,1,0,0V0A0,0,0,0,1,0,0Z" stroke="none"/>
        <path d="M2,1H50a3,3,0,0,1,3,3V45a3,3,0,0,1-3,3H2a1,1,0,0,1-1-1V2A1,1,0,0,1,2,1Z" fill="none"/>
      </g>
      <g id="ic-menu" transform="translate(11.794 10.671)">
        <path id="bars-solid" d="M1.084,64.877H29.26a1.084,1.084,0,0,0,1.084-1.084V61.084A1.084,1.084,0,0,0,29.26,60H1.084A1.084,1.084,0,0,0,0,61.084v2.709A1.084,1.084,0,0,0,1.084,64.877Zm0,10.837H29.26a1.084,1.084,0,0,0,1.084-1.084V71.921a1.084,1.084,0,0,0-1.084-1.084H1.084A1.084,1.084,0,0,0,0,71.921V74.63A1.084,1.084,0,0,0,1.084,75.714Zm0,10.837H29.26a1.084,1.084,0,0,0,1.084-1.084V82.758a1.084,1.084,0,0,0-1.084-1.084H1.084A1.084,1.084,0,0,0,0,82.758v2.709A1.084,1.084,0,0,0,1.084,86.55Z" transform="translate(0 -60)"/>
      </g>
    </g>
  </g>
</svg>
