<svg xmlns="http://www.w3.org/2000/svg" width="26.65" height="37.013" viewBox="0 0 26.65 37.013">
  <g id="Icons-_-Social-Icons-_-Source-_-Pinterest" data-name="Icons-/-Social-Icons-/-Source-/-Pinterest" transform="translate(-6 -7)">
    <path id="Shape" d="M19.789,7C27.018,7,32.65,12.7,32.65,20.339,32.65,28.3,28.117,34.7,21.832,34.7a5.412,5.412,0,0,1-4.774-2.66l-1.305,5.491a30.2,30.2,0,0,1-2.782,6.478,12.362,12.362,0,0,1-1.239-.478,28.446,28.446,0,0,1,.054-7.14l2.438-11.477-.108-.282a9.677,9.677,0,0,1-.51-3.138c0-3.211,1.683-5.605,3.778-5.605,1.786,0,2.645,1.482,2.645,3.249,0,1.976-1.133,4.94-1.734,7.7a3.277,3.277,0,0,0,3.091,4.18c3.709,0,6.56-4.332,6.56-10.565,0-5.529-3.589-9.387-8.723-9.387-5.941,0-9.427,4.921-9.427,10.014a9.664,9.664,0,0,0,1.545,5.263.742.742,0,0,1,.137.665l-.584,2.622c-.086.418-.309.513-.7.3C7.614,28.566,6,24.348,6,20.966,6,13.688,10.774,7,19.789,7Z" fill="#006837" fill-rule="evenodd"/>
  </g>
</svg>
