<svg xmlns="http://www.w3.org/2000/svg" width="42" height="37.013" viewBox="0 0 42 37.013">
  <g id="Icons-_-Social-Icons-_-Source-_-Twitter" data-name="Icons-/-Social-Icons-/-Source-/-Twitter" transform="translate(-6 -8)">
    <path id="Path" d="M48,12.382a16.159,16.159,0,0,1-4.949,1.47,9.276,9.276,0,0,0,3.79-5.169,16.463,16.463,0,0,1-5.472,2.267A8.312,8.312,0,0,0,35.077,8c-4.758,0-8.617,4.185-8.617,9.344a10.079,10.079,0,0,0,.224,2.13A23.888,23.888,0,0,1,8.923,9.709a9.911,9.911,0,0,0-1.167,4.7,9.573,9.573,0,0,0,3.833,7.778,8.055,8.055,0,0,1-3.9-1.17c0,.04,0,.08,0,.118A9.193,9.193,0,0,0,14.6,30.3a8,8,0,0,1-3.891.161,8.746,8.746,0,0,0,8.049,6.489,16.455,16.455,0,0,1-10.7,4A16.041,16.041,0,0,1,6,40.815a23.019,23.019,0,0,0,13.208,4.2c15.849,0,24.517-14.238,24.517-26.587q0-.608-.025-1.208A18.36,18.36,0,0,0,48,12.382Z" fill="#006837"/>
  </g>
</svg>
