<svg xmlns="http://www.w3.org/2000/svg" width="21.037" height="24.042" viewBox="0 0 21.037 24.042">
  <path id="trash-alt-regular" d="M12.585,19.534h1.127a.563.563,0,0,0,.563-.563V8.828a.563.563,0,0,0-.563-.563H12.585a.563.563,0,0,0-.563.563V18.971A.563.563,0,0,0,12.585,19.534Zm7.7-15.778h-3.87l-1.6-2.662A2.254,2.254,0,0,0,12.886,0H8.151A2.254,2.254,0,0,0,6.219,1.094l-1.6,2.662H.751A.751.751,0,0,0,0,4.508v.751a.751.751,0,0,0,.751.751H1.5V21.788a2.254,2.254,0,0,0,2.254,2.254H17.28a2.254,2.254,0,0,0,2.254-2.254V6.011h.751a.751.751,0,0,0,.751-.751V4.508A.751.751,0,0,0,20.286,3.757ZM8.069,2.391a.282.282,0,0,1,.242-.137h4.414a.282.282,0,0,1,.242.137l.82,1.366H7.25Zm9.211,19.4H3.757V6.011H17.28ZM7.325,19.534H8.452a.563.563,0,0,0,.563-.563V8.828a.563.563,0,0,0-.563-.563H7.325a.563.563,0,0,0-.563.563V18.971A.563.563,0,0,0,7.325,19.534Z" transform="translate(0 0)" fill="#fff"/>
</svg>
